<svg width="40" height="44" viewBox="0 0 40 44" fill="none" xmlns="http://www.w3.org/2000/svg">
<path fill-rule="evenodd" clip-rule="evenodd" d="M32.0024 38.0998C28.6549 40.0546 25.1146 37.4346 22.4929 34.5705C24.8827 31.3328 27.1643 27.4014 27.2878 23.3817C27.3918 19.5608 25.3291 16.6325 22.2827 15.5202C20.6729 14.924 18.8789 14.8681 17.2301 15.3541C14.1946 16.2483 12.0193 18.8806 11.7593 22.2847C11.4018 26.5851 13.9324 31.1082 16.5238 34.5684C14.9941 36.264 12.9206 38.1192 10.6759 38.6203C6.77376 39.5405 3.44792 35.845 4.75876 31.8146C5.43259 29.7627 15.8521 6.64719 17.6222 5.24754C18.6904 4.37925 20.3848 4.35915 21.4941 5.33112C23.1213 6.73508 33.7834 30.0627 34.3489 32.1341C35.0119 34.5835 33.9459 36.9853 32.0024 38.0998ZM19.5051 30.8339C18.5994 29.5206 17.8021 28.2267 17.1586 26.7449C16.2161 24.5396 15.5964 21.6388 17.5876 20.3148C18.8551 19.4659 20.6469 19.5738 21.7649 20.5803C23.1754 21.8287 22.8223 24.1379 22.1831 25.9155C21.5006 27.7731 20.4736 29.4515 19.5051 30.8339ZM24.7354 2.10439C21.8083 -0.798571 16.9636 -0.619288 14.2227 2.15623C11.7419 4.59913 0.542432 28.7865 0.109099 32.0156C-0.803068 38.206 4.13477 43.6835 10.0563 43.2774C13.8263 43.0722 16.9159 40.7393 19.5073 37.994C23.9381 42.7135 29.6256 45.2021 34.7563 41.6619C37.4039 39.8497 39.0593 36.6985 39.0051 33.3074C38.9553 28.819 26.7938 4.08074 24.7354 2.10439Z" fill="black"/>
</svg>
