<svg width="44" height="42" viewBox="0 0 44 42" fill="none" xmlns="http://www.w3.org/2000/svg">
<path fill-rule="evenodd" clip-rule="evenodd" d="M37.4687 8.50522L11.3604 33.3703L8.2967 30.4525L34.4051 5.58744C35.2501 4.78061 36.6215 4.78061 37.4687 5.58744C38.3159 6.3922 38.3159 7.69839 37.4687 8.50522ZM36.1059 34.5073C36.6497 35.764 35.679 37.1444 34.2512 37.1444H34.236C33.4235 37.1444 32.689 36.6759 32.3814 35.9578L27.2594 24.0659L30.3274 21.142L36.1059 34.5073ZM5.5754 10.4056C4.82357 10.1126 4.33389 9.41523 4.33389 8.63935C4.33389 7.27951 5.78337 6.35498 7.10504 6.87498L21.1364 12.3866L18.0705 15.3064L5.5754 10.4056ZM42.0642 4.12849L39.0006 1.20869C37.3084 -0.402897 34.5654 -0.402897 32.8732 1.20869L24.1979 9.47299L9.29989 3.64158C4.86689 1.90618 0.000544877 5.00963 0.000544877 9.57613C0.000544877 11.2476 1.06004 12.756 2.68504 13.3915L15.0069 18.2242L6.76272 26.0759C5.91772 26.8806 4.54623 26.8806 3.69906 26.0759C2.85406 25.2691 1.48254 25.2691 0.635373 26.0759C-0.211791 26.8806 -0.211791 28.1867 0.635373 28.9935L12.8922 40.6668C13.7372 41.4716 15.1109 41.4716 15.9559 40.6668C16.8031 39.86 16.8031 38.5538 15.9559 37.749C15.1109 36.9422 15.1109 35.6359 15.9559 34.8291L24.2 26.9797L29.2744 38.7148C29.9417 40.2624 31.5234 41.2713 33.2805 41.2713C38.0732 41.2713 41.334 36.6368 39.5119 32.4148L33.3889 18.2263L42.0642 9.96405C43.7564 8.35246 43.7564 5.74007 42.0642 4.12849Z" fill="black"/>
</svg>
