<svg width="39" height="44" viewBox="0 0 39 44" fill="none" xmlns="http://www.w3.org/2000/svg">
<path fill-rule="evenodd" clip-rule="evenodd" d="M25.1827 34.6987C17.3826 35.3634 10.6797 30.1127 9.05111 22.9313C7.46593 15.941 12.2974 8.72945 19.4513 8.68818C24.8488 8.65776 29.3375 12.5769 30.2071 17.7272C30.8642 21.6286 28.4875 25.6162 24.5582 26.0289C20.6483 26.4395 17.3479 23.3809 17.3479 19.549C17.3479 18.3499 18.3193 17.3771 19.5163 17.3771C20.7134 17.3771 21.6849 18.3499 21.6849 19.549C21.6849 20.7481 22.6564 21.721 23.8534 21.721C25.0504 21.721 26.0219 20.7481 26.0219 19.549C26.0219 15.7172 22.7214 12.6586 18.8116 13.0691C14.8823 13.484 12.5056 17.4705 13.1627 21.3719C14.0322 26.5244 18.521 30.4413 23.9184 30.4109C31.0724 30.3696 35.9038 23.1571 34.3186 16.1668C32.3735 7.58207 23.1747 1.75899 13.5205 5.49742C8.58926 7.40465 5.07194 11.9773 4.4691 17.2385C3.18968 28.4168 11.3324 37.9867 21.9668 39.0099C23.0489 39.1141 23.8534 40.0639 23.8534 41.1543C23.8534 42.449 22.7258 43.4524 21.4377 43.322C9.50873 42.1208 0.173247 32.1182 0.00193493 19.8928C-0.128176 10.6478 6.31665 2.29906 15.355 0.430936C27.0346 -1.98459 37.4088 6.05952 38.8595 16.9338C40.0175 25.6119 33.8914 33.9558 25.1827 34.6987Z" fill="black"/>
</svg>
