<svg width="35" height="44" viewBox="0 0 35 44" fill="none" xmlns="http://www.w3.org/2000/svg">
<path fill-rule="evenodd" clip-rule="evenodd" d="M17.3333 39C9.893 39 4.33333 35.568 4.33333 32.5C4.33333 31.083 5.52932 29.5923 7.53782 28.3941C9.26249 32.0905 12.987 34.6667 17.3333 34.6667C21.6797 34.6667 25.4042 32.0905 27.1288 28.3941C29.1373 29.5923 30.3333 31.083 30.3333 32.5C30.3333 35.568 24.7737 39 17.3333 39ZM17.3333 17.3333C22.0328 17.3333 25.3587 22.3144 23.1118 26.7474C22.0393 28.8643 19.864 30.3333 17.3333 30.3333C14.8027 30.3333 12.6273 28.8643 11.5548 26.7474C9.31667 22.3296 12.6187 17.3333 17.3333 17.3333ZM28.145 24.0412C28.1472 23.9697 28.1667 23.9048 28.1667 23.8333C28.1667 18.5922 24.4443 14.2222 19.5 13.219V8.06628C20.7892 7.31445 21.6667 5.93233 21.6667 4.33333C21.6667 1.93917 19.7275 0 17.3333 0C14.9392 0 13 1.93917 13 4.33333C13 5.93233 13.8775 7.31445 15.1667 8.06628V13.219C10.2223 14.2222 6.5 18.5922 6.5 23.8333C6.5 23.9048 6.5195 23.9697 6.52167 24.0412C2.55017 26.0259 0 29.0745 0 32.5C0 38.4822 7.761 43.3333 17.3333 43.3333C26.9057 43.3333 34.6667 38.4822 34.6667 32.5C34.6667 29.0745 32.1165 26.0259 28.145 24.0412Z" fill="black"/>
</svg>
