<svg width="134" height="48" viewBox="0 0 134 48" fill="none" xmlns="http://www.w3.org/2000/svg">
<path d="M16.9958 45.429H13.8763L25.3503 16.4285H28.4757L20.7607 36.0767L17.3962 36.5307H20.5157L16.9958 45.429Z" fill="#0E0E0E"/>
<path d="M29.1091 44.055L25.2128 48L25.2128 16.4285H29.1091L29.1091 44.055Z" fill="#0E0E0E"/>
<path d="M38.2345 45.9892L34.5354 42.7754V20.2791H35.2644L38.2345 28.6113V45.9892Z" fill="#0E0E0E"/>
<path d="M58.1106 43.2L54.4055 45.9892V27.2786L58.1106 21.0221V43.2Z" fill="#0E0E0E"/>
<path d="M86.8552 18.4924H83.0843V45.9361H86.8552V18.4924Z" fill="#0E0E0E"/>
<path d="M96.3031 30.4511L92.6816 32.0079V19.4949L96.6915 16.9887L96.3031 30.4511Z" fill="#0E0E0E"/>
<path d="M117.65 45.1695L117.016 45.9538V14.3823H120.721V34.6143L117.65 45.1695Z" fill="#0E0E0E"/>
<path d="M134 45.9597H130.295V30.4806L132.888 16.6231L130.295 14.3882H134V45.9597Z" fill="#0E0E0E"/>
<path d="M13.4998 36.5307L12.3584 39.6737H25.6012V36.5307H13.4998Z" fill="#0E0E0E"/>
<path d="M48.3159 36.7843H44.6168L54.4054 17.5253H58.1106L48.3159 36.7843Z" fill="#0E0E0E"/>
<path d="M44.6168 39.5381H48.316L38.5273 20.2791H34.8222L44.6168 39.5381Z" fill="#0E0E0E"/>
<path d="M83.2516 34.9327L83.8851 31.4594L90.1718 30.6634L92.6816 32.0079L83.2516 34.9327Z" fill="#0E0E0E"/>
<path d="M96.3089 20.2791L96.6915 16.9887L81.6139 14.3646L82.8629 17.6551L96.3089 20.2791Z" fill="#0E0E0E"/>
<path d="M98.5204 44.0845H95.138L98.9088 35.0683H102.5L99.2136 34.343L107.58 14.3646H110.962L98.5204 44.0845Z" fill="#0E0E0E"/>
<path d="M111.488 45.9361L107.592 44.0845V14.3646H111.488V45.9361Z" fill="#0E0E0E"/>
<path d="M96.3391 35.0683L93.5542 38.2939H108.219V35.0683H96.3391Z" fill="#0E0E0E"/>
<path d="M120.614 45.9597H117.016L130.229 14.3882H133.827L120.614 45.9597Z" fill="#0E0E0E"/>
<path d="M131.717 0L125.747 13.6275L123.398 6.8167L127.372 9.74742L125.95 6.42162L131.717 0Z" fill="#0E0E0E"/>
<path d="M3.80073 18.6929H0L0 41.6432H3.80073L3.80073 18.6929Z" fill="#0E0E0E"/>
<path d="M6.93813 44.0727L3.81866 46.0835L0 41.6432L3.11947 39.6324L6.93813 44.0727Z" fill="#0E0E0E"/>
<path d="M0 18.6988L3.11947 20.7037L6.86642 16.3578L3.74695 14.3469L0 18.6988Z" fill="#0E0E0E"/>
<path d="M3.81866 46.0835L8.59927 39.7268H12.412L9.914 46.0835L3.81866 46.0835Z" fill="#0E0E0E"/>
<path d="M3.74695 14.3469L6.86642 16.3578L5.59359 18.3273L16.9301 22.4609L18.7527 19.542L3.74695 14.3469Z" fill="#0E0E0E"/>
<path d="M67.5107 47.9057L63.9191 47.9057L78.9965 9.02805L83.114 9.02805L72.8771 35.4516L67.9708 38.2231H71.5624L67.5107 47.9057Z" fill="#0E0E0E"/>
<path d="M66.3096 21.0221H62.6822L69.3633 34.8855L73.8931 32.6447L72.3214 29.6845L70.2657 31.5951L71.0844 28.4049L66.3096 21.0221Z" fill="#0E0E0E"/>
</svg>
